<svg width="89" height="90" viewBox="0 0 89 90" fill="none" xmlns="http://www.w3.org/2000/svg">
    <style>
        @font-face {
            font-family: "Press Start 2P";
            src: url("../fonts/PressStart2P-Regular.ttf") format('embedded-opentype'), /* Internet Explorer */
                 url("../fonts/PressStart2P-Regular.ttf") format('woff2'), /* Super Modern Browsers */
                 url("../fonts/PressStart2P-Regular.ttf") format('woff'), /* Pretty Modern Browsers */
                 url("../fonts/PressStart2P-Regular.ttf") format('truetype'), /* Safari, Android, iOS */
                 url("../fonts/PressStart2P-Regular.ttf") format('svg'); /* Legacy iOS */
        }

        #floppy-label-text {
            font-family: 'Press Start 2P';
            font-style: normal;
            font-weight: 400;
            fill: #FF0000;
            stroke: #000000;
            stroke-width: 0.25px;
        }
    </style>

    <path
        d="M23.6239 7.1755L63.4717 3.68927L63.4281 3.19117L70.4015 2.58108L70.3143 1.58489L75.1538 1.16149L81.8078 6.74489L88.2449 80.3218L79.2792 81.1062L79.192 80.11L17.428 85.5136L17.5151 86.5098L8.54936 87.2942L1.5769 7.59863L9.54646 6.90139L9.6772 8.39568L23.6239 7.1755Z"
        fill="url(#paint0_linear_95_430)" stroke="black" stroke-width="0.25" />
    <path id="floppy-label"
        d="M13.7287 41.7947L75.2437 36.4128L78.5447 74.1437C78.6831 75.7254 77.513 77.1199 75.9312 77.2583L20.1443 82.139C18.5626 82.2774 17.1681 81.1073 17.0297 79.5255L13.7287 41.7947Z"
        fill="white" stroke="black" stroke-width="0.25" />
    <path
        d="M15.9826 34.5707L71.7695 29.69C73.3513 29.5516 74.7458 30.7217 74.8842 32.3035L75.3091 37.1599L13.794 42.5418L13.3691 37.6853C13.2308 36.1036 14.4009 34.7091 15.9826 34.5707Z"
        fill="url(#paint1_linear_95_430)" stroke="black" stroke-width="0.25" />
    <path
        d="M20.0715 46.8862L69.8813 42.5284M20.5945 52.8634L70.4042 48.5056M21.1174 58.8406L70.9271 54.4828M21.6403 64.8177L71.4501 60.4599M22.1633 70.7949L71.973 66.4371M22.6862 76.7721L72.4959 72.4143"
        id="label-placeholder-lines" stroke="black" stroke-width="0.5"/>
    <rect x="9.67725" y="8.39563" width="13" height="23.5" transform="rotate(-5 9.67725 8.39563)" fill="black"
        fill-opacity="0.15" />

    <mask id="path-6-inside-1_95_430" fill="white">
        <path fill-rule="evenodd" clip-rule="evenodd"
            d="M60.3962 2.95456L22.5408 6.26648L24.6761 30.6733L62.5315 27.3613L60.3962 2.95456ZM54.8112 7.96038L46.8416 8.65763L48.2361 24.5967L56.2057 23.8995L54.8112 7.96038Z" />
    </mask>

    <path fill-rule="evenodd" clip-rule="evenodd"
        d="M60.3962 2.95456L22.5408 6.26648L24.6761 30.6733L62.5315 27.3613L60.3962 2.95456ZM54.8112 7.96038L46.8416 8.65763L48.2361 24.5967L56.2057 23.8995L54.8112 7.96038Z"
        fill="url(#paint2_linear_95_430)" />
    <path
        d="M22.5408 6.26648L22.519 6.01743L22.2699 6.03922L22.2917 6.28827L22.5408 6.26648ZM60.3962 2.95456L60.6452 2.93277L60.6234 2.68372L60.3744 2.70551L60.3962 2.95456ZM24.6761 30.6733L24.427 30.695L24.4488 30.9441L24.6979 30.9223L24.6761 30.6733ZM62.5315 27.3613L62.5533 27.6104L62.8023 27.5886L62.7805 27.3396L62.5315 27.3613ZM46.8416 8.65763L46.8199 8.40858L46.5708 8.43037L46.5926 8.67942L46.8416 8.65763ZM54.8112 7.96038L55.0603 7.93859L55.0385 7.68955L54.7894 7.71133L54.8112 7.96038ZM48.2361 24.5967L47.9871 24.6185L48.0089 24.8676L48.2579 24.8458L48.2361 24.5967ZM56.2057 23.8995L56.2275 24.1485L56.4765 24.1268L56.4547 23.8777L56.2057 23.8995ZM22.5626 6.51553L60.418 3.20361L60.3744 2.70551L22.519 6.01743L22.5626 6.51553ZM24.9251 30.6515L22.7898 6.24469L22.2917 6.28827L24.427 30.695L24.9251 30.6515ZM62.5097 27.1123L24.6543 30.4242L24.6979 30.9223L62.5533 27.6104L62.5097 27.1123ZM60.1471 2.97635L62.2824 27.3831L62.7805 27.3396L60.6452 2.93277L60.1471 2.97635ZM46.8634 8.90668L54.833 8.20943L54.7894 7.71133L46.8199 8.40858L46.8634 8.90668ZM48.4852 24.575L47.0907 8.63584L46.5926 8.67942L47.9871 24.6185L48.4852 24.575ZM56.1839 23.6505L48.2143 24.3477L48.2579 24.8458L56.2275 24.1485L56.1839 23.6505ZM54.5622 7.98217L55.9566 23.9213L56.4547 23.8777L55.0603 7.93859L54.5622 7.98217Z"
        fill="black" mask="url(#path-6-inside-1_95_430)" />
    <rect x="10.7148" y="76.1882" width="3.75" height="3.75" transform="rotate(-5 10.7148 76.1882)"
        fill="url(#paint3_linear_95_430)" stroke="black" stroke-width="0.25" />
    <rect x="80.4484" y="70.0874" width="3.75" height="3.75" transform="rotate(-5 80.4484 70.0874)"
        fill="url(#paint4_linear_95_430)" stroke="black" stroke-width="0.25" />
    <path
        d="M16.6055 88.4716L7.91817 89.2316L8.63732 87.412L17.3246 86.652L17.0164 87.4318L16.988 87.5036L16.6055 88.4716ZM1.49863 8.13702L8.42237 87.2757L7.80596 88.8354L0.882218 9.69668L1.49863 8.13702ZM17.2949 87.4074L17.6031 86.6276L17.6506 86.6234L17.6397 86.4989L17.5635 85.6272L79.0015 80.2521L78.2824 82.0717L17.2949 87.4074ZM78.4973 82.208L79.1138 80.6483L79.1522 81.0877L78.5358 82.6473L78.4973 82.208ZM78.648 83.0435L79.3671 81.2239L88.0545 80.4639L87.3353 82.2835L78.648 83.0435ZM70.0941 2.48251L70.2361 2.12327L70.2662 2.46745L70.0941 2.48251ZM22.4924 7.14903L22.3203 7.16408L22.4623 6.80485L22.4924 7.14903Z"
        fill="url(#paint5_linear_95_430)" stroke="black" stroke-width="0.25" />
    <path
        d="M14.0302 79.6625L13.7841 76.85L14.4659 76.0375L14.7773 79.5971L14.0302 79.6625ZM14.2744 75.8768L13.5926 76.6893L10.7801 76.9354L10.7148 76.1882L14.2744 75.8768Z"
        fill="#6A46D2" stroke="black" stroke-width="0.25" />
    <path
        d="M83.7638 73.5616L83.5178 70.7492L84.1995 69.9367L84.511 73.4963L83.7638 73.5616ZM84.008 69.776L83.3263 70.5885L80.5138 70.8345L80.4484 70.0874L84.008 69.776Z"
        fill="#A76CD6" stroke="black" stroke-width="0.25" />

    <text id="floppy-label-text"></text>

    <defs>
        <linearGradient id="paint0_linear_95_430" x1="81.2725" y1="0.626176" x2="8.54936" y2="87.2942"
            gradientUnits="userSpaceOnUse">
            <stop stop-color="#E694DB" />
            <stop offset="1" stop-color="#5B3CD1" />
        </linearGradient>
        <linearGradient id="paint1_linear_95_430" x1="13.6804" y1="42.6772" x2="74.7472" y2="29.304"
            gradientUnits="userSpaceOnUse">
            <stop stop-color="#AD6DEE" />
            <stop offset="1" stop-color="#71C8FC" />
        </linearGradient>
        <linearGradient id="paint2_linear_95_430" x1="60.3962" y1="2.95456" x2="25.2025" y2="31.3262"
            gradientUnits="userSpaceOnUse">
            <stop stop-color="#E2D3FC" />
            <stop offset="0.135317" stop-color="#E2D3FC" />
            <stop offset="0.135417" stop-color="#F0E5FD" />
            <stop offset="0.239583" stop-color="#F0E5FD" />
            <stop offset="0.239683" stop-color="#E2D3FC" />
            <stop offset="0.473858" stop-color="#E2D3FC" />
            <stop offset="0.473958" stop-color="#F0E5FD" />
            <stop offset="0.65615" stop-color="#F6E6FE" />
            <stop offset="0.65625" stop-color="#EBD8FC" />
            <stop offset="0.890425" stop-color="#EBD8FC" />
            <stop offset="0.890525" stop-color="#F2E4F9" />
            <stop offset="1" stop-color="#F6E6FE" />
        </linearGradient>
        <linearGradient id="paint3_linear_95_430" x1="87.5793" y1="7.07458" x2="7.57935" y2="87.0746"
            gradientUnits="userSpaceOnUse">
            <stop stop-color="#E694DB" />
            <stop offset="1" stop-color="#5B3CD1" />
        </linearGradient>
        <linearGradient id="paint4_linear_95_430" x1="87.313" y1="0.973757" x2="7.31299" y2="80.9738"
            gradientUnits="userSpaceOnUse">
            <stop stop-color="#E694DB" />
            <stop offset="1" stop-color="#5B3CD1" />
        </linearGradient>
        <linearGradient id="paint5_linear_95_430" x1="81.2726" y1="0.62618" x2="8.54948" y2="87.2942"
            gradientUnits="userSpaceOnUse">
            <stop stop-color="#E694DB" />
            <stop offset="1" stop-color="#5B3CD1" />
        </linearGradient>
    </defs>

    <!-- A very special thank you to *Kimberly Zick (rummik) -->
    <!-- https://github.com/rummik/ -->

    <script>
        // <![CDATA[
        const rotation = -5;
        const maxWidth = 61.5;
        const maxHeight = 40;
        const padding = 5;

        const originX = 46.3;
        const originY = 59.8;

        const url = new URL(window.location.href);
        const text = url.searchParams.get('labelText');

        if (text == 0) {
            // return;
        }

        const label = document.getElementById('floppy-label');
        const labelText = document.getElementById('floppy-label-text');

        // remove the placeholder lines
        document.getElementById('label-placeholder-lines').remove();

        // create a tspan node for each line of text
        const lines = text.split('\n');

        for (let i = 0; i < lines.length; i++) {
            const tspan = document.createElementNS('http://www.w3.org/2000/svg', 'tspan');
            tspan.textContent = lines[i];

            if (i > 0)
                tspan.setAttribute('dy', '1.2em');

            // center the text by setting the x attribute to originX
            tspan.setAttribute('x', originX);

            labelText.appendChild(tspan);
        }

        // get bounding boxes -- this needs to be done after setting the text
        // or we'll get the bounding box of an empty text element
        const textBBox = labelText.getBBox();

        // calculate the scale factor to fit the text into the floppy label
        // we start by comparing the aspect ratios of the label and the text
        // and then scale the text to best fit the label
        const scale = (maxWidth / maxHeight) > (textBBox.width / textBBox.height) ?
            (maxHeight - padding) / textBBox.height :
            (maxWidth - padding) / textBBox.width;

        // center the text vertically
        labelText.setAttribute('text-anchor', 'middle');
        labelText.setAttribute('dominant-baseline', 'middle');
        labelText.setAttribute('y', originY - textBBox.height / lines.length / 2 * scale * (lines.length - 1));

        // set the font size
        labelText.setAttribute('font-size', `${scale}em`);

        // rotate the label
        labelText.setAttribute('transform', `rotate(${rotation} ${originX} ${originY})`);
        // ]]>
    </script>
</svg>